<svg version="1.1" xmlns="http://www.w3.org/2000/svg" viewBox="0 0 1042.4486229693694 1177.4121200287984" width="2084.8972459387387" height="2354.824240057597">
  <!-- svg-source:excalidraw -->
  
  <defs>
    <style class="style-fonts">
      @font-face {
        font-family: "Virgil";
        src: url("https://excalidraw.com/Virgil.woff2");
      }
      @font-face {
        font-family: "Cascadia";
        src: url("https://excalidraw.com/Cascadia.woff2");
      }
      @font-face {
        font-family: "Assistant";
        src: url("https://app.excalidraw.com//dist/excalidraw-assets/Assistant-Regular.woff2");
      }
    </style>
    
  </defs>
  <rect x="0" y="0" width="1042.4486229693694" height="1177.4121200287984" fill="#ffffff"></rect><g transform="translate(359.6907351798687 10) rotate(0 164.77194213867188 22.5)"><text x="0" y="31.536" font-family="Virgil, Segoe UI Emoji" font-size="36px" fill="#2f9e44" text-anchor="start" style="white-space: pre;" direction="ltr" dominant-baseline="alphabetic">edgedb and Python</text></g><g stroke-linecap="round" transform="translate(10 77.99913246215485) rotate(0 254.6284110640852 141.28390738116076)"><path d="M32 0 C178.12 1.63, 322.76 0.25, 477.26 0 M477.26 0 C496.68 0.77, 509.1 10.52, 509.26 32 M509.26 32 C510.93 116.06, 512.34 196.32, 509.26 250.57 M509.26 250.57 C509 271.3, 500.23 281.21, 477.26 282.57 M477.26 282.57 C323.59 282.31, 171.18 282.5, 32 282.57 M32 282.57 C11.42 283.76, 1.15 272.05, 0 250.57 M0 250.57 C-1.25 173.98, -1.28 94.78, 0 32 M0 32 C-0.67 11.7, 9.98 0.36, 32 0" stroke="#2f9e44" stroke-width="2.5" fill="none" stroke-dasharray="8 10"></path></g><g transform="translate(43.99572053491451 90.26113088683391) rotate(0 220.43251469709122 114.77930371317501)"><text x="0" y="20.10933401054826" font-family="Virgil, Segoe UI Emoji" font-size="22.955860742635004px" fill="#2f9e44" text-anchor="start" style="white-space: pre;" direction="ltr" dominant-baseline="alphabetic">Installation</text><text x="0" y="48.80415993884201" font-family="Virgil, Segoe UI Emoji" font-size="22.955860742635004px" fill="#2f9e44" text-anchor="start" style="white-space: pre;" direction="ltr" dominant-baseline="alphabetic">1. Create an isolated environment</text><text x="0" y="77.49898586713576" font-family="Virgil, Segoe UI Emoji" font-size="22.955860742635004px" fill="#2f9e44" text-anchor="start" style="white-space: pre;" direction="ltr" dominant-baseline="alphabetic">    python -m venv .venv</text><text x="0" y="106.19381179542953" font-family="Virgil, Segoe UI Emoji" font-size="22.955860742635004px" fill="#2f9e44" text-anchor="start" style="white-space: pre;" direction="ltr" dominant-baseline="alphabetic">2. Activate the isolated environment</text><text x="0" y="134.88863772372326" font-family="Virgil, Segoe UI Emoji" font-size="22.955860742635004px" fill="#2f9e44" text-anchor="start" style="white-space: pre;" direction="ltr" dominant-baseline="alphabetic">    source .venv/bin/activate</text><text x="0" y="163.58346365201703" font-family="Virgil, Segoe UI Emoji" font-size="22.955860742635004px" fill="#2f9e44" text-anchor="start" style="white-space: pre;" direction="ltr" dominant-baseline="alphabetic">3. Install edgedb CLI and Python SDK</text><text x="0" y="192.27828958031077" font-family="Virgil, Segoe UI Emoji" font-size="22.955860742635004px" fill="#2f9e44" text-anchor="start" style="white-space: pre;" direction="ltr" dominant-baseline="alphabetic">    pip install edgedb</text><text x="0" y="220.9731155086045" font-family="Virgil, Segoe UI Emoji" font-size="22.955860742635004px" fill="#2f9e44" text-anchor="start" style="white-space: pre;" direction="ltr" dominant-baseline="alphabetic"></text></g><g stroke-linecap="round" transform="translate(540.6903978348162 75.5499137121549) rotate(0 243.81235382869454 161.17415561617818)"><path d="M32 0 C153.21 -1.86, 273.55 -0.49, 455.62 0 M455.62 0 C477.63 -0.02, 489.32 11.81, 487.62 32 M487.62 32 C486.47 124.42, 485.14 216.45, 487.62 290.35 M487.62 290.35 C488.96 311.03, 477.98 322.94, 455.62 322.35 M455.62 322.35 C293.14 320.87, 133.2 320.32, 32 322.35 M32 322.35 C11.73 322.33, -1.3 312.93, 0 290.35 M0 290.35 C0.02 207.9, -1.33 125.74, 0 32 M0 32 C-0.33 12.49, 9.83 -0.67, 32 0" stroke="#2f9e44" stroke-width="2.5" fill="none" stroke-dasharray="8 10"></path></g><g transform="translate(563.9780602005715 90.62010272798946) rotate(0 224.58288574218744 136.6984427817686)"><text x="0" y="19.159653740292683" font-family="Virgil, Segoe UI Emoji" font-size="21.871750845082975px" fill="#2f9e44" text-anchor="start" style="white-space: pre;" direction="ltr" dominant-baseline="alphabetic">Start Development</text><text x="0" y="46.499342296646404" font-family="Virgil, Segoe UI Emoji" font-size="21.871750845082975px" fill="#2f9e44" text-anchor="start" style="white-space: pre;" direction="ltr" dominant-baseline="alphabetic">1. Create an edgedb project</text><text x="0" y="73.83903085300011" font-family="Virgil, Segoe UI Emoji" font-size="21.871750845082975px" fill="#2f9e44" text-anchor="start" style="white-space: pre;" direction="ltr" dominant-baseline="alphabetic">    edgedb project init</text><text x="0" y="101.17871940935383" font-family="Virgil, Segoe UI Emoji" font-size="21.871750845082975px" fill="#2f9e44" text-anchor="start" style="white-space: pre;" direction="ltr" dominant-baseline="alphabetic">2. Answer the questions about version,</text><text x="0" y="128.51840796570755" font-family="Virgil, Segoe UI Emoji" font-size="21.871750845082975px" fill="#2f9e44" text-anchor="start" style="white-space: pre;" direction="ltr" dominant-baseline="alphabetic">   instance name</text><text x="0" y="155.85809652206126" font-family="Virgil, Segoe UI Emoji" font-size="21.871750845082975px" fill="#2f9e44" text-anchor="start" style="white-space: pre;" direction="ltr" dominant-baseline="alphabetic"></text><text x="0" y="183.197785078415" font-family="Virgil, Segoe UI Emoji" font-size="21.871750845082975px" fill="#2f9e44" text-anchor="start" style="white-space: pre;" direction="ltr" dominant-baseline="alphabetic">The project creates a edgedb.toml for</text><text x="0" y="210.53747363476873" font-family="Virgil, Segoe UI Emoji" font-size="21.871750845082975px" fill="#2f9e44" text-anchor="start" style="white-space: pre;" direction="ltr" dominant-baseline="alphabetic">config and creates a link to the instance</text><text x="0" y="237.8771621911224" font-family="Virgil, Segoe UI Emoji" font-size="21.871750845082975px" fill="#2f9e44" text-anchor="start" style="white-space: pre;" direction="ltr" dominant-baseline="alphabetic">to simplify connection to the instance.</text><text x="0" y="265.21685074747614" font-family="Virgil, Segoe UI Emoji" font-size="21.871750845082975px" fill="#2f9e44" text-anchor="start" style="white-space: pre;" direction="ltr" dominant-baseline="alphabetic"></text></g><g transform="translate(277.3040917193694 309.8730575287984) rotate(0 92.275390625 11.5)"><text x="0" y="18.400390625" font-family="Helvetica, Segoe UI Emoji" font-size="20px" fill="#2f9e44" text-anchor="start" style="white-space: pre;" direction="ltr" dominant-baseline="alphabetic">CLI and Python SDK</text></g><g transform="translate(891.3978417193694 365.9785262787984) rotate(0 55.0390625 11.5)"><text x="0" y="18.400390625" font-family="Helvetica, Segoe UI Emoji" font-size="20px" fill="#2f9e44" text-anchor="start" style="white-space: pre;" direction="ltr" dominant-baseline="alphabetic">edgedb.toml</text></g><g stroke-linecap="round" transform="translate(24.90174796936941 430.4004012787984) rotate(0 236.0546875 184.97265625)"><path d="M32 0 C151.48 1.69, 273 0.79, 440.11 0 M440.11 0 C460.32 0.68, 472.62 9.98, 472.11 32 M472.11 32 C468.68 151.63, 469.63 273.26, 472.11 337.95 M472.11 337.95 C471.02 360.85, 463.34 370.61, 440.11 369.95 M440.11 369.95 C356.87 369.31, 274.36 369.55, 32 369.95 M32 369.95 C9.24 368.83, 1.37 358.72, 0 337.95 M0 337.95 C1.12 272.27, 1.22 210, 0 32 M0 32 C1.32 10.79, 12.24 -1.54, 32 0" stroke="#1971c2" stroke-width="2.5" fill="none" stroke-dasharray="1.5 8"></path></g><g stroke-linecap="round" transform="translate(542.2259667193694 433.6738387787984) rotate(0 245.111328125 229.626953125)"><path d="M32 0 C188.54 0.1, 346.62 0.92, 458.22 0 M458.22 0 C480.57 -1.81, 489.71 11.61, 490.22 32 M490.22 32 C489.03 159.27, 489.72 286.08, 490.22 427.25 M490.22 427.25 C490.52 449.26, 479.37 459.98, 458.22 459.25 M458.22 459.25 C342.39 458.95, 227.9 458.74, 32 459.25 M32 459.25 C9.03 458.09, -1.9 450.4, 0 427.25 M0 427.25 C-2.08 295.46, -0.82 164.79, 0 32 M0 32 C-0.28 9.83, 11.27 -1.18, 32 0" stroke="#1971c2" stroke-width="2.5" fill="none" stroke-dasharray="1.5 8"></path></g><g transform="translate(45.24549796936941 447.5332137787984) rotate(0 222.41986083984375 137.5)"><text x="0" y="17.52" font-family="Virgil, Segoe UI Emoji" font-size="20px" fill="#1971c2" text-anchor="start" style="white-space: pre;" direction="ltr" dominant-baseline="alphabetic">EdgeQL - Query Language</text><text x="0" y="42.519999999999996" font-family="Virgil, Segoe UI Emoji" font-size="20px" fill="#1971c2" text-anchor="start" style="white-space: pre;" direction="ltr" dominant-baseline="alphabetic"></text><text x="0" y="67.52" font-family="Virgil, Segoe UI Emoji" font-size="20px" fill="#1971c2" text-anchor="start" style="white-space: pre;" direction="ltr" dominant-baseline="alphabetic">modern query language with an object focus</text><text x="0" y="92.52" font-family="Virgil, Segoe UI Emoji" font-size="20px" fill="#1971c2" text-anchor="start" style="white-space: pre;" direction="ltr" dominant-baseline="alphabetic"></text><text x="0" y="117.52" font-family="Virgil, Segoe UI Emoji" font-size="20px" fill="#1971c2" text-anchor="start" style="white-space: pre;" direction="ltr" dominant-baseline="alphabetic">strongly typed</text><text x="0" y="142.52" font-family="Virgil, Segoe UI Emoji" font-size="20px" fill="#1971c2" text-anchor="start" style="white-space: pre;" direction="ltr" dominant-baseline="alphabetic"></text><text x="0" y="167.52" font-family="Virgil, Segoe UI Emoji" font-size="20px" fill="#1971c2" text-anchor="start" style="white-space: pre;" direction="ltr" dominant-baseline="alphabetic">clean syntax { } and := assignment operator</text><text x="0" y="192.52" font-family="Virgil, Segoe UI Emoji" font-size="20px" fill="#1971c2" text-anchor="start" style="white-space: pre;" direction="ltr" dominant-baseline="alphabetic"></text><text x="0" y="217.52" font-family="Virgil, Segoe UI Emoji" font-size="20px" fill="#1971c2" text-anchor="start" style="white-space: pre;" direction="ltr" dominant-baseline="alphabetic">deep queries without JOINS</text><text x="0" y="242.52" font-family="Virgil, Segoe UI Emoji" font-size="20px" fill="#1971c2" text-anchor="start" style="white-space: pre;" direction="ltr" dominant-baseline="alphabetic"></text><text x="0" y="267.52" font-family="Virgil, Segoe UI Emoji" font-size="20px" fill="#1971c2" text-anchor="start" style="white-space: pre;" direction="ltr" dominant-baseline="alphabetic">composable queries FTW</text></g><g transform="translate(566.9408104693694 460.8691512787984) rotate(0 176.93984985351562 200)"><text x="0" y="17.52" font-family="Virgil, Segoe UI Emoji" font-size="20px" fill="#1971c2" text-anchor="start" style="white-space: pre;" direction="ltr" dominant-baseline="alphabetic">Edgedb Standard Library</text><text x="0" y="42.519999999999996" font-family="Virgil, Segoe UI Emoji" font-size="20px" fill="#1971c2" text-anchor="start" style="white-space: pre;" direction="ltr" dominant-baseline="alphabetic"></text><text x="0" y="67.52" font-family="Virgil, Segoe UI Emoji" font-size="20px" fill="#1971c2" text-anchor="start" style="white-space: pre;" direction="ltr" dominant-baseline="alphabetic">scalar types</text><text x="0" y="92.52" font-family="Virgil, Segoe UI Emoji" font-size="20px" fill="#1971c2" text-anchor="start" style="white-space: pre;" direction="ltr" dominant-baseline="alphabetic"></text><text x="0" y="117.52" font-family="Virgil, Segoe UI Emoji" font-size="20px" fill="#1971c2" text-anchor="start" style="white-space: pre;" direction="ltr" dominant-baseline="alphabetic">collection types (arrays and tuples)</text><text x="0" y="142.52" font-family="Virgil, Segoe UI Emoji" font-size="20px" fill="#1971c2" text-anchor="start" style="white-space: pre;" direction="ltr" dominant-baseline="alphabetic"></text><text x="0" y="167.52" font-family="Virgil, Segoe UI Emoji" font-size="20px" fill="#1971c2" text-anchor="start" style="white-space: pre;" direction="ltr" dominant-baseline="alphabetic">object types</text><text x="0" y="192.52" font-family="Virgil, Segoe UI Emoji" font-size="20px" fill="#1971c2" text-anchor="start" style="white-space: pre;" direction="ltr" dominant-baseline="alphabetic"></text><text x="0" y="217.52" font-family="Virgil, Segoe UI Emoji" font-size="20px" fill="#1971c2" text-anchor="start" style="white-space: pre;" direction="ltr" dominant-baseline="alphabetic">range types</text><text x="0" y="242.52" font-family="Virgil, Segoe UI Emoji" font-size="20px" fill="#1971c2" text-anchor="start" style="white-space: pre;" direction="ltr" dominant-baseline="alphabetic"></text><text x="0" y="267.52" font-family="Virgil, Segoe UI Emoji" font-size="20px" fill="#1971c2" text-anchor="start" style="white-space: pre;" direction="ltr" dominant-baseline="alphabetic">types and sets</text><text x="0" y="292.52" font-family="Virgil, Segoe UI Emoji" font-size="20px" fill="#1971c2" text-anchor="start" style="white-space: pre;" direction="ltr" dominant-baseline="alphabetic"></text><text x="0" y="317.52" font-family="Virgil, Segoe UI Emoji" font-size="20px" fill="#1971c2" text-anchor="start" style="white-space: pre;" direction="ltr" dominant-baseline="alphabetic">utilities</text><text x="0" y="342.52" font-family="Virgil, Segoe UI Emoji" font-size="20px" fill="#1971c2" text-anchor="start" style="white-space: pre;" direction="ltr" dominant-baseline="alphabetic"></text><text x="0" y="367.52" font-family="Virgil, Segoe UI Emoji" font-size="20px" fill="#1971c2" text-anchor="start" style="white-space: pre;" direction="ltr" dominant-baseline="alphabetic">extensions</text><text x="0" y="392.52" font-family="Virgil, Segoe UI Emoji" font-size="20px" fill="#1971c2" text-anchor="start" style="white-space: pre;" direction="ltr" dominant-baseline="alphabetic"></text></g><g stroke-linecap="round"><g transform="translate(571.4564354693694 491.8769637787984) rotate(0 122.95031987279651 -0.39770148843524566)"><path d="M0.23 0.26 C41.31 0.18, 204.83 -0.76, 245.67 -1.05" stroke="#1971c2" stroke-width="2.5" fill="none" stroke-dasharray="1.5 8"></path></g></g><mask></mask><g stroke-linecap="round"><g transform="translate(47.69862296936941 473.6191512787984) rotate(0 126.75481854528186 -0.17665694803000065)"><path d="M-0.51 -0.47 C41.71 -0.4, 211.82 -0.04, 254.02 0.12" stroke="#1971c2" stroke-width="2.5" fill="none" stroke-dasharray="1.5 8"></path></g></g><mask></mask><g stroke-linecap="round" transform="translate(30.89002921936941 844.0097762787984) rotate(0 233.8203125 161.701171875)"><path d="M32 0 C138.49 -1.48, 244.75 -1.27, 435.64 0 M435.64 0 C455.76 -0.89, 466.8 9, 467.64 32 M467.64 32 C467.04 131.26, 466.98 228.97, 467.64 291.4 M467.64 291.4 C466.88 312.99, 455.13 325.01, 435.64 323.4 M435.64 323.4 C298.08 325.43, 163.47 325.45, 32 323.4 M32 323.4 C9.19 324.14, 1.96 311.99, 0 291.4 M0 291.4 C2.18 209.63, 0.62 126.33, 0 32 M0 32 C-1.65 9.98, 11.27 0.95, 32 0" stroke="#1971c2" stroke-width="2.5" fill="none" stroke-dasharray="1.5 8"></path></g><g transform="translate(72.86659171936941 867.1191512787984) rotate(0 47.50995635986328 12.5)"><text x="0" y="17.52" font-family="Virgil, Segoe UI Emoji" font-size="20px" fill="#1971c2" text-anchor="start" style="white-space: pre;" direction="ltr" dominant-baseline="alphabetic">Reference</text></g><g transform="translate(74.74549796936941 913.2285262787984) rotate(0 196.52981567382812 112.5)"><text x="0" y="17.52" font-family="Virgil, Segoe UI Emoji" font-size="20px" fill="#1971c2" text-anchor="start" style="white-space: pre;" direction="ltr" dominant-baseline="alphabetic">EdgeQL - Query Language</text><text x="0" y="42.519999999999996" font-family="Virgil, Segoe UI Emoji" font-size="20px" fill="#1971c2" text-anchor="start" style="white-space: pre;" direction="ltr" dominant-baseline="alphabetic"></text><text x="0" y="67.52" font-family="Virgil, Segoe UI Emoji" font-size="20px" fill="#1971c2" text-anchor="start" style="white-space: pre;" direction="ltr" dominant-baseline="alphabetic">SDL - Schema Definition Language</text><text x="0" y="92.52" font-family="Virgil, Segoe UI Emoji" font-size="20px" fill="#1971c2" text-anchor="start" style="white-space: pre;" direction="ltr" dominant-baseline="alphabetic"></text><text x="0" y="117.52" font-family="Virgil, Segoe UI Emoji" font-size="20px" fill="#1971c2" text-anchor="start" style="white-space: pre;" direction="ltr" dominant-baseline="alphabetic">DDL - Data Definition Language (lower</text><text x="0" y="142.52" font-family="Virgil, Segoe UI Emoji" font-size="20px" fill="#1971c2" text-anchor="start" style="white-space: pre;" direction="ltr" dominant-baseline="alphabetic">       level than SDL - order matters)</text><text x="0" y="167.52" font-family="Virgil, Segoe UI Emoji" font-size="20px" fill="#1971c2" text-anchor="start" style="white-space: pre;" direction="ltr" dominant-baseline="alphabetic"></text><text x="0" y="192.52" font-family="Virgil, Segoe UI Emoji" font-size="20px" fill="#1971c2" text-anchor="start" style="white-space: pre;" direction="ltr" dominant-baseline="alphabetic">Binary Protocol - message based comms</text><text x="0" y="217.52" font-family="Virgil, Segoe UI Emoji" font-size="20px" fill="#1971c2" text-anchor="start" style="white-space: pre;" direction="ltr" dominant-baseline="alphabetic"></text></g><g stroke-linecap="round"><g transform="translate(166.3158104693694 897.3730575287984) rotate(0 -47.908907209336746 -0.5292331575088269)"><path d="M0.36 -0.94 C-15.77 -0.99, -80.07 -0.27, -96.18 -0.12" stroke="#1971c2" stroke-width="2.5" fill="none" stroke-dasharray="1.5 8"></path></g></g><mask></mask></svg>