<svg version="1.1" xmlns="http://www.w3.org/2000/svg" viewBox="0 0 1086.9813871398399 1148.5318752426858" width="2173.9627742796797" height="2297.0637504853717">
  <!-- svg-source:excalidraw -->
  
  <defs>
    <style class="style-fonts">
      @font-face {
        font-family: "Virgil";
        src: url("https://excalidraw.com/Virgil.woff2");
      }
      @font-face {
        font-family: "Cascadia";
        src: url("https://excalidraw.com/Cascadia.woff2");
      }
      @font-face {
        font-family: "Assistant";
        src: url("https://app.excalidraw.com//dist/excalidraw-assets/Assistant-Regular.woff2");
      }
    </style>
    
  </defs>
  <rect x="0" y="0" width="1086.9813871398399" height="1148.5318752426858" fill="#ffffff"></rect><g stroke-linecap="round" transform="translate(38.45034954455542 438.4256988676442) rotate(0 52.728515625 138.890625)"><path d="M26.36 0 C37.91 0.6, 57.82 1.62, 79.09 0 C100.13 -0.93, 105.72 6.1, 105.46 26.36 C108 105.64, 105.96 187.89, 105.46 251.42 C104.01 271.45, 97.48 277.02, 79.09 277.78 C70.71 281.24, 54.93 275.49, 26.36 277.78 C12.19 278.38, 0.97 266.28, 0 251.42 C3.72 179.4, 6.31 105.66, 0 26.36 C-2.07 5.43, 10.73 -0.97, 26.36 0" stroke="none" stroke-width="0" fill="#a5d8ff"></path><path d="M26.36 0 C44.52 -0.23, 63.24 0.8, 79.09 0 M26.36 0 C46.03 -0.04, 63.64 0.59, 79.09 0 M79.09 0 C98.01 -1.89, 106.45 7.42, 105.46 26.36 M79.09 0 C96.44 -1.11, 105.22 10.96, 105.46 26.36 M105.46 26.36 C105.5 111.24, 105.95 199.82, 105.46 251.42 M105.46 26.36 C106.06 93.85, 104.8 161.15, 105.46 251.42 M105.46 251.42 C106.78 270.58, 97.39 276.59, 79.09 277.78 M105.46 251.42 C104.88 271, 96.15 277.99, 79.09 277.78 M79.09 277.78 C58.55 279.3, 40.86 276.29, 26.36 277.78 M79.09 277.78 C61.63 276.65, 42.21 277.57, 26.36 277.78 M26.36 277.78 C8.94 276.18, 1.89 268.92, 0 251.42 M26.36 277.78 C8.98 275.93, -2.27 270.82, 0 251.42 M0 251.42 C-2.04 175.88, -1.91 102.99, 0 26.36 M0 251.42 C-0.35 204.84, 0.54 157.62, 0 26.36 M0 26.36 C1.33 8.41, 8.09 -0.15, 26.36 0 M0 26.36 C1.95 8.69, 11 0.41, 26.36 0" stroke="#1e1e1e" stroke-width="1" fill="none"></path></g><g stroke-linecap="round" transform="translate(168.86037942660374 433.9698596352516) rotate(0 52.728515625 138.890625)"><path d="M26.36 0 C47.05 2.65, 58.64 -1.92, 79.09 0 C94.88 -1.51, 107.74 9.96, 105.46 26.36 C105.5 113.81, 103.24 202.93, 105.46 251.42 C106.33 271.46, 96.28 277.76, 79.09 277.78 C59.85 274.99, 37.96 277.85, 26.36 277.78 C8.75 280.48, -3.08 265.81, 0 251.42 C-0.72 169.43, 1.05 88.63, 0 26.36 C-2.37 10.36, 10.38 -0.61, 26.36 0" stroke="none" stroke-width="0" fill="#a5d8ff"></path><path d="M26.36 0 C38.2 1.62, 49.01 0.34, 79.09 0 M26.36 0 C41.92 -0.12, 56.4 0.56, 79.09 0 M79.09 0 C95.75 0.59, 104.59 8.69, 105.46 26.36 M79.09 0 C97.15 -0.79, 105.3 10.35, 105.46 26.36 M105.46 26.36 C103.37 99.88, 104.56 175.79, 105.46 251.42 M105.46 26.36 C105.14 79.46, 106.27 134.19, 105.46 251.42 M105.46 251.42 C105.64 270.7, 97.25 279.54, 79.09 277.78 M105.46 251.42 C104.09 271.24, 98.47 280.04, 79.09 277.78 M79.09 277.78 C66.6 279.44, 59.21 275.96, 26.36 277.78 M79.09 277.78 C60.01 277.57, 41.92 277.24, 26.36 277.78 M26.36 277.78 C9.68 279.57, 1.48 269.11, 0 251.42 M26.36 277.78 C10.44 279.32, -0.06 268.43, 0 251.42 M0 251.42 C1.06 196.13, 1.53 139.4, 0 26.36 M0 251.42 C1.35 168.57, 1.76 85.4, 0 26.36 M0 26.36 C-0.3 9.76, 10.44 1.66, 26.36 0 M0 26.36 C-0.37 9.32, 8.99 -1.08, 26.36 0" stroke="#1e1e1e" stroke-width="1" fill="none"></path></g><g stroke-linecap="round" transform="translate(295.01662942660374 433.4199325287984) rotate(0 52.728515625 138.890625)"><path d="M26.36 0 C39.38 2.57, 49.78 -0.63, 79.09 0 C93.98 2.14, 106.36 11.8, 105.46 26.36 C103.36 104.84, 105.73 186.48, 105.46 251.42 C104.7 265.79, 93.47 277.99, 79.09 277.78 C56.91 280.67, 40.02 278.25, 26.36 277.78 C6.08 278.73, -3.54 268.46, 0 251.42 C-0.49 179.95, -4.46 113.7, 0 26.36 C-0.97 8.6, 6.86 -1.28, 26.36 0" stroke="none" stroke-width="0" fill="#a5d8ff"></path><path d="M26.36 0 C42.99 1.04, 59.09 -0.72, 79.09 0 M26.36 0 C45.75 1.14, 63.29 0.96, 79.09 0 M79.09 0 C95.3 -0.2, 104.49 8.59, 105.46 26.36 M79.09 0 C98.84 1.91, 105.99 8.75, 105.46 26.36 M105.46 26.36 C104.95 88.55, 103.92 149.92, 105.46 251.42 M105.46 26.36 C104.3 111.13, 105.62 195.07, 105.46 251.42 M105.46 251.42 C104.27 268.49, 98.41 277.33, 79.09 277.78 M105.46 251.42 C105.67 270.36, 95.41 275.91, 79.09 277.78 M79.09 277.78 C66.43 278.57, 55.61 275.94, 26.36 277.78 M79.09 277.78 C59.92 277.55, 39.44 278.42, 26.36 277.78 M26.36 277.78 C8.71 277.95, -1.61 267.02, 0 251.42 M26.36 277.78 C10.62 278.53, 0.62 267.43, 0 251.42 M0 251.42 C2.07 202.27, 0.65 157.16, 0 26.36 M0 251.42 C-0.79 196.58, -1.57 140.3, 0 26.36 M0 26.36 C-0.15 10.48, 8.7 1.92, 26.36 0 M0 26.36 C0.41 8.01, 10.14 -1.89, 26.36 0" stroke="#1e1e1e" stroke-width="1" fill="none"></path></g><g stroke-linecap="round" transform="translate(10 181.39807694794038) rotate(0 202.53215059277002 283.48969756142526)"><path d="M32 0 C152.55 1.57, 273.51 -0.25, 373.06 0 M32 0 C105.7 -1.47, 178.13 -1.15, 373.06 0 M373.06 0 C395.95 0.43, 404.59 8.77, 405.06 32 M373.06 0 C393.02 -1.72, 405.16 8.68, 405.06 32 M405.06 32 C403.44 212.86, 403.3 393.86, 405.06 534.98 M405.06 32 C404.11 165.2, 404.26 299.31, 405.06 534.98 M405.06 534.98 C403.55 555.07, 393.56 565.16, 373.06 566.98 M405.06 534.98 C405.33 555.76, 396.44 565.99, 373.06 566.98 M373.06 566.98 C258.57 564.53, 141 563.86, 32 566.98 M373.06 566.98 C263.68 567.17, 154.22 567.39, 32 566.98 M32 566.98 C9.78 566.21, 1.36 554.78, 0 534.98 M32 566.98 C9.02 568.93, -0.65 556.09, 0 534.98 M0 534.98 C-0.18 350.5, -0.61 166.01, 0 32 M0 534.98 C0.97 397.01, 0.67 259.57, 0 32 M0 32 C-0.32 9.11, 11.86 -1.17, 32 0 M0 32 C1.66 8.92, 9.52 1.73, 32 0" stroke="#1e1e1e" stroke-width="1" fill="none"></path></g><g transform="translate(50.94241067660374 208.9199325287984) rotate(0 55.67797088623047 17.5)"><text x="0" y="24.528" font-family="Virgil, Segoe UI Emoji" font-size="28px" fill="#1e1e1e" text-anchor="start" style="white-space: pre;" direction="ltr" dominant-baseline="alphabetic">instance</text></g><g transform="translate(49.14162942660374 445.2833401467501) rotate(0 42.95198059082031 17.5)"><text x="0" y="24.528" font-family="Virgil, Segoe UI Emoji" font-size="28px" fill="#1e1e1e" text-anchor="start" style="white-space: pre;" direction="ltr" dominant-baseline="alphabetic">branch</text></g><g transform="translate(178.00100442660374 442.9277450287984) rotate(0 42.95198059082031 17.5)"><text x="0" y="24.528" font-family="Virgil, Segoe UI Emoji" font-size="28px" fill="#1e1e1e" text-anchor="start" style="white-space: pre;" direction="ltr" dominant-baseline="alphabetic">branch</text></g><g transform="translate(307.31350442660374 444.1543075287984) rotate(0 42.95198059082031 17.5)"><text x="0" y="24.528" font-family="Virgil, Segoe UI Emoji" font-size="28px" fill="#1e1e1e" text-anchor="start" style="white-space: pre;" direction="ltr" dominant-baseline="alphabetic">branch</text></g><g transform="translate(52.62600442660374 373.9707137787984) rotate(0 114.94989776611328 12.5)"><text x="0" y="17.52" font-family="Virgil, Segoe UI Emoji" font-size="20px" fill="#1e1e1e" text-anchor="start" style="white-space: pre;" direction="ltr" dominant-baseline="alphabetic">runs an edgedb process</text></g><g transform="translate(57.24316107404752 499.0703231537984) rotate(0 33.85997009277344 25)"><text x="33.85997009277344" y="17.52" font-family="Virgil, Segoe UI Emoji" font-size="20px" fill="#1e1e1e" text-anchor="middle" style="white-space: pre;" direction="ltr" dominant-baseline="alphabetic">schema</text><text x="33.85997009277344" y="42.519999999999996" font-family="Virgil, Segoe UI Emoji" font-size="20px" fill="#1e1e1e" text-anchor="middle" style="white-space: pre;" direction="ltr" dominant-baseline="alphabetic"></text></g><g transform="translate(67.31838690412565 647.5097762787984) rotate(0 24.433181762695312 12.376953125)"><text x="24.433181762695312" y="17.347537499999998" font-family="Virgil, Segoe UI Emoji" font-size="19.803124999999998px" fill="#1e1e1e" text-anchor="middle" style="white-space: pre;" direction="ltr" dominant-baseline="alphabetic">data</text></g><g transform="translate(197.86135565412565 652.7285262787984) rotate(0 24.43318176269534 12.376953125)"><text x="24.433181762695312" y="17.347537499999998" font-family="Virgil, Segoe UI Emoji" font-size="19.803124999999998px" fill="#1e1e1e" text-anchor="middle" style="white-space: pre;" direction="ltr" dominant-baseline="alphabetic">data</text></g><g transform="translate(329.5879181541257 660.9355575287984) rotate(0 24.433181762695312 12.376953125)"><text x="24.433181762695312" y="17.347537499999998" font-family="Virgil, Segoe UI Emoji" font-size="19.803124999999998px" fill="#1e1e1e" text-anchor="middle" style="white-space: pre;" direction="ltr" dominant-baseline="alphabetic">data</text></g><g transform="translate(189.87863623273893 495.1230575287984) rotate(0 33.52136993408206 12.376953125)"><text x="33.52136993408203" y="17.347537499999998" font-family="Virgil, Segoe UI Emoji" font-size="19.803124999999998px" fill="#1e1e1e" text-anchor="middle" style="white-space: pre;" direction="ltr" dominant-baseline="alphabetic">schema</text></g><g transform="translate(315.663792482739 497.0605575287984) rotate(0 33.52136993408203 24.75390625)"><text x="33.52136993408203" y="17.347537499999998" font-family="Virgil, Segoe UI Emoji" font-size="19.803124999999998px" fill="#1e1e1e" text-anchor="middle" style="white-space: pre;" direction="ltr" dominant-baseline="alphabetic">schema</text><text x="33.52136993408203" y="42.101443749999994" font-family="Virgil, Segoe UI Emoji" font-size="19.803124999999998px" fill="#1e1e1e" text-anchor="middle" style="white-space: pre;" direction="ltr" dominant-baseline="alphabetic"></text></g><g transform="translate(322.57912942660374 264.9472762787984) rotate(0 26.234375 36.80000000000001)"><text x="0" y="14.720312499999999" font-family="Helvetica, Segoe UI Emoji" font-size="16px" fill="#1e1e1e" text-anchor="start" style="white-space: pre;" direction="ltr" dominant-baseline="alphabetic">create</text><text x="0" y="33.1203125" font-family="Helvetica, Segoe UI Emoji" font-size="16px" fill="#1e1e1e" text-anchor="start" style="white-space: pre;" direction="ltr" dominant-baseline="alphabetic">start</text><text x="0" y="51.520312499999996" font-family="Helvetica, Segoe UI Emoji" font-size="16px" fill="#1e1e1e" text-anchor="start" style="white-space: pre;" direction="ltr" dominant-baseline="alphabetic">stop</text><text x="0" y="69.9203125" font-family="Helvetica, Segoe UI Emoji" font-size="16px" fill="#1e1e1e" text-anchor="start" style="white-space: pre;" direction="ltr" dominant-baseline="alphabetic">destroy</text></g><g stroke-linecap="round" transform="translate(46.89553567660374 484.0371200287984) rotate(0 44.3203125 73.9921875)"><path d="M22.16 0 C36.65 -2.11, 46.82 0.26, 66.48 0 M66.48 0 C80.27 0.26, 87.83 7.17, 88.64 22.16 M88.64 22.16 C89.54 46.78, 88.4 75.09, 88.64 125.82 M88.64 125.82 C87.39 141.26, 79.64 146.96, 66.48 147.98 M66.48 147.98 C57.49 147.37, 43.39 147.97, 22.16 147.98 M22.16 147.98 C5.55 148.56, -0.6 142.33, 0 125.82 M0 125.82 C-0.16 102.29, 0.93 78.81, 0 22.16 M0 22.16 C0.83 8.05, 8.57 1.22, 22.16 0" stroke="#1e1e1e" stroke-width="1.5" fill="none" stroke-dasharray="1.5 7"></path></g><g stroke-linecap="round" transform="translate(175.10256692660374 489.4121200287984) rotate(0 44.3203125 73.9921875)"><path d="M22.16 0 C36.14 1.51, 51.17 -1.4, 66.48 0 M66.48 0 C82 1.82, 87.36 8.2, 88.64 22.16 M88.64 22.16 C87.13 52.24, 88.98 84.39, 88.64 125.82 M88.64 125.82 C86.67 141.95, 79.77 148.04, 66.48 147.98 M66.48 147.98 C56.48 148.54, 44.83 147.06, 22.16 147.98 M22.16 147.98 C6.43 147.23, -1.24 139.39, 0 125.82 M0 125.82 C-0.59 102.86, -0.81 83.26, 0 22.16 M0 22.16 C1.87 5.69, 7.96 -1.13, 22.16 0" stroke="#1e1e1e" stroke-width="1.5" fill="none" stroke-dasharray="1.5 7"></path></g><g stroke-linecap="round" transform="translate(303.32522317660374 493.3574325287984) rotate(0 44.3203125 73.9921875)"><path d="M22.16 0 C32.58 0.8, 47.74 -1.23, 66.48 0 M66.48 0 C82.07 0.02, 89.17 7.5, 88.64 22.16 M88.64 22.16 C87.87 42.01, 89.41 64.32, 88.64 125.82 M88.64 125.82 C88.7 139.77, 83.14 149.61, 66.48 147.98 M66.48 147.98 C48.65 147.31, 32.63 147.03, 22.16 147.98 M22.16 147.98 C6.18 146.13, -1.89 140.42, 0 125.82 M0 125.82 C1.18 104.71, -0.94 80.43, 0 22.16 M0 22.16 C-1.13 8.34, 9.35 1.87, 22.16 0" stroke="#1e1e1e" stroke-width="1.5" fill="none" stroke-dasharray="1.5 7"></path></g><g transform="translate(61.20022317660374 560.8418075287984) rotate(0 28.4609375 18.399999999999977)"><text x="0" y="14.720312499999999" font-family="Helvetica, Segoe UI Emoji" font-size="16px" fill="#1e1e1e" text-anchor="start" style="white-space: pre;" direction="ltr" dominant-baseline="alphabetic">module:</text><text x="0" y="33.1203125" font-family="Helvetica, Segoe UI Emoji" font-size="16px" fill="#1e1e1e" text-anchor="start" style="white-space: pre;" direction="ltr" dominant-baseline="alphabetic">default</text></g><g transform="translate(318.18850442660374 558.1191512787984) rotate(0 28.4609375 18.399999999999977)"><text x="0" y="14.720312499999999" font-family="Helvetica, Segoe UI Emoji" font-size="16px" fill="#1e1e1e" text-anchor="start" style="white-space: pre;" direction="ltr" dominant-baseline="alphabetic">module:</text><text x="0" y="33.1203125" font-family="Helvetica, Segoe UI Emoji" font-size="16px" fill="#1e1e1e" text-anchor="start" style="white-space: pre;" direction="ltr" dominant-baseline="alphabetic">default</text></g><g transform="translate(188.55178567660374 527.4472762787984) rotate(0 32.4609375 46)"><text x="0" y="14.720312499999999" font-family="Helvetica, Segoe UI Emoji" font-size="16px" fill="#1e1e1e" text-anchor="start" style="white-space: pre;" direction="ltr" dominant-baseline="alphabetic">modules:</text><text x="0" y="33.1203125" font-family="Helvetica, Segoe UI Emoji" font-size="16px" fill="#1e1e1e" text-anchor="start" style="white-space: pre;" direction="ltr" dominant-baseline="alphabetic">default</text><text x="0" y="51.520312499999996" font-family="Helvetica, Segoe UI Emoji" font-size="16px" fill="#1e1e1e" text-anchor="start" style="white-space: pre;" direction="ltr" dominant-baseline="alphabetic">building</text><text x="0" y="69.9203125" font-family="Helvetica, Segoe UI Emoji" font-size="16px" fill="#1e1e1e" text-anchor="start" style="white-space: pre;" direction="ltr" dominant-baseline="alphabetic">hut</text><text x="0" y="88.3203125" font-family="Helvetica, Segoe UI Emoji" font-size="16px" fill="#1e1e1e" text-anchor="start" style="white-space: pre;" direction="ltr" dominant-baseline="alphabetic">house</text></g><g stroke-linecap="round"><g transform="translate(542.2939731766037 341.9824325287984) rotate(0 -62.30645054727796 49.08539797216656)"><path d="M-0.11 0.76 C-20.73 16.91, -103.79 81.25, -124.5 97.41" stroke="#1971c2" stroke-width="2.5" fill="none" stroke-dasharray="8 10"></path></g><g transform="translate(542.2939731766037 341.9824325287984) rotate(0 -62.30645054727796 49.08539797216656)"><path d="M-111.2 76.25 C-112.96 81.4, -116.68 86.54, -124.5 97.41" stroke="#1971c2" stroke-width="2.5" fill="none"></path></g><g transform="translate(542.2939731766037 341.9824325287984) rotate(0 -62.30645054727796 49.08539797216656)"><path d="M-100.71 89.75 C-104.97 91.74, -111.14 93.72, -124.5 97.41" stroke="#1971c2" stroke-width="2.5" fill="none"></path></g></g><mask></mask><g transform="translate(554.3095981766037 313.5035262787984) rotate(0 102.75991821289062 25)"><text x="0" y="17.52" font-family="Virgil, Segoe UI Emoji" font-size="20px" fill="#1971c2" text-anchor="start" style="white-space: pre;" direction="ltr" dominant-baseline="alphabetic">branches are similar </text><text x="0" y="42.519999999999996" font-family="Virgil, Segoe UI Emoji" font-size="20px" fill="#1971c2" text-anchor="start" style="white-space: pre;" direction="ltr" dominant-baseline="alphabetic">to databases</text></g><g transform="translate(518.6377231766037 822.0410262787984) rotate(0 237.0234375 9.199999999999989)"><text x="0" y="14.720312499999999" font-family="Helvetica, Segoe UI Emoji" font-size="16px" fill="#f08c00" text-anchor="start" style="white-space: pre;" direction="ltr" dominant-baseline="alphabetic">std: standard types, functions, and operators in the standard library</text></g><g transform="translate(518.0869419266037 877.5011825287984) rotate(0 139.62890625 9.199999999999989)"><text x="0" y="14.720312499999999" font-family="Helvetica, Segoe UI Emoji" font-size="16px" fill="#f08c00" text-anchor="start" style="white-space: pre;" direction="ltr" dominant-baseline="alphabetic">math: algebraic and statistical functions</text></g><g transform="translate(518.0869419266037 934.3011825287983) rotate(0 261.46875 9.199999999999989)"><text x="0" y="14.720312499999999" font-family="Helvetica, Segoe UI Emoji" font-size="16px" fill="#f08c00" text-anchor="start" style="white-space: pre;" direction="ltr" dominant-baseline="alphabetic">cal: local (non-timezone-aware) and relative date/time types and functions</text></g><g transform="translate(518.0869419266037 991.1011825287983) rotate(0 181.42578125 9.199999999999989)"><text x="0" y="14.720312499999999" font-family="Helvetica, Segoe UI Emoji" font-size="16px" fill="#f08c00" text-anchor="start" style="white-space: pre;" direction="ltr" dominant-baseline="alphabetic">schema: types describing the introspection schema</text></g><g transform="translate(518.0869419266037 1047.9011825287982) rotate(0 212.54296875 9.200000000000045)"><text x="0" y="14.720312499999999" font-family="Helvetica, Segoe UI Emoji" font-size="16px" fill="#f08c00" text-anchor="start" style="white-space: pre;" direction="ltr" dominant-baseline="alphabetic">sys: system-wide entities, such as user roles and databases</text></g><g transform="translate(518.0869419266037 1104.7011825287982) rotate(0 106.2890625 9.200000000000045)"><text x="0" y="14.720312499999999" font-family="Helvetica, Segoe UI Emoji" font-size="16px" fill="#f08c00" text-anchor="start" style="white-space: pre;" direction="ltr" dominant-baseline="alphabetic">cfg: configuration and settings</text></g><g stroke-linecap="round" transform="translate(482.6813620168105 754.5780856666704) rotate(359.94261127940587 297.05401740979323 191.8281749871279)"><path d="M32 0 C161.85 1.31, 293.39 0.16, 562.11 0 M562.11 0 C582.24 -0.1, 592.86 11.53, 594.11 32 M594.11 32 C596.09 119.44, 595.01 207.37, 594.11 351.66 M594.11 351.66 C592.98 374.73, 584.32 384.72, 562.11 383.66 M562.11 383.66 C435.47 383.61, 307.88 382.64, 32 383.66 M32 383.66 C10.01 385.31, -0.55 372.59, 0 351.66 M0 351.66 C0.82 234.43, 2.84 118.27, 0 32 M0 32 C0.6 9.54, 10.84 1.35, 32 0" stroke="#f08c00" stroke-width="2.5" fill="none" stroke-dasharray="8 10"></path></g><g transform="translate(518.9368099515059 776.1476360390258) rotate(359.94261127940587 113.7499008178711 12.5)"><text x="0" y="17.52" font-family="Virgil, Segoe UI Emoji" font-size="20px" fill="#f08c00" text-anchor="start" style="white-space: pre;" direction="ltr" dominant-baseline="alphabetic">Reserved module names</text></g><g stroke-linecap="round" transform="translate(717.8955356766037 375.8027450287984) rotate(0 174.759765625 48.041015625)"><path d="M24.02 0 C117.31 2.67, 208.37 3.27, 325.5 0 M325.5 0 C341.56 0.3, 350.61 6.54, 349.52 24.02 M349.52 24.02 C348.04 34.95, 350.55 47.79, 349.52 72.06 M349.52 72.06 C348.16 87.98, 342.6 97.83, 325.5 96.08 M325.5 96.08 C229.99 97.04, 136.17 96.62, 24.02 96.08 M24.02 96.08 C9.38 95.38, -1.89 88.21, 0 72.06 M0 72.06 C1.56 57.26, -1.09 47.3, 0 24.02 M0 24.02 C1.71 9.86, 7.09 -1.73, 24.02 0" stroke="#1971c2" stroke-width="2.5" fill="none" stroke-dasharray="8 10"></path></g><g transform="translate(731.8189725328737 389.9394637787984) rotate(0 74.04915072917942 12.3828125)"><text x="0" y="17.355749999999997" font-family="Virgil, Segoe UI Emoji" font-size="19.812499999999996px" fill="#1971c2" text-anchor="start" style="white-space: pre;" direction="ltr" dominant-baseline="alphabetic">Define schemas</text></g><g transform="translate(948.1572544266037 438.4121200287984) rotate(0 51.1474609375 11.5)"><text x="0" y="18.400390625" font-family="Helvetica, Segoe UI Emoji" font-size="20px" fill="#1971c2" text-anchor="start" style="white-space: pre;" direction="ltr" dominant-baseline="alphabetic">default.esdl</text></g><g transform="translate(729.8603794266037 417.3613387787984) rotate(0 151.39190673828125 10)"><text x="0" y="14.016" font-family="Virgil, Segoe UI Emoji" font-size="16px" fill="#1971c2" text-anchor="start" style="white-space: pre;" direction="ltr" dominant-baseline="alphabetic">Use edgedb schema definition language</text></g><g stroke-linecap="round" transform="translate(722.4829498305412 483.6576997901176) rotate(0 90.89012492703307 40.946869965803444)"><path d="M20.47 0 C67.48 -1.02, 112.48 -0.64, 161.31 0 M161.31 0 C175.88 -1.98, 180.02 6.93, 181.78 20.47 M181.78 20.47 C182.33 31.56, 183.69 41.47, 181.78 61.42 M181.78 61.42 C180.28 73.19, 176.87 80.28, 161.31 81.89 M161.31 81.89 C119.94 83.68, 75.8 84.39, 20.47 81.89 M20.47 81.89 C8.42 81.41, -0.1 74.92, 0 61.42 M0 61.42 C-1.49 49.94, -1.38 36.88, 0 20.47 M0 20.47 C-0.84 6.89, 6.64 -1.8, 20.47 0" stroke="#1971c2" stroke-width="2.5" fill="none" stroke-dasharray="8 10"></path></g><g transform="translate(735.9953297070767 490.0789976953422) rotate(0 78.20596313476562 20.23046875)"><text x="0" y="14.177512499999999" font-family="Virgil, Segoe UI Emoji" font-size="16.184375px" fill="#1971c2" text-anchor="start" style="white-space: pre;" direction="ltr" dominant-baseline="alphabetic">Define object types</text><text x="0" y="34.40798125" font-family="Virgil, Segoe UI Emoji" font-size="16.184375px" fill="#1971c2" text-anchor="start" style="white-space: pre;" direction="ltr" dominant-baseline="alphabetic">in modules</text></g><g transform="translate(737.2002162489403 538.625462937443) rotate(0 75.140625 9.199999999999989)"><text x="0" y="14.720312499999999" font-family="Helvetica, Segoe UI Emoji" font-size="16px" fill="#1971c2" text-anchor="start" style="white-space: pre;" direction="ltr" dominant-baseline="alphabetic">Similar to SQL tables</text></g><g stroke-linecap="round" transform="translate(494.8632242023006 583.3159035731832) rotate(0 287.4733829239331 68.37573365836704)"><path d="M32 0 C157.22 -0.45, 283 -1.44, 542.95 0 M542.95 0 C565.17 -1.57, 575.73 9.81, 574.95 32 M574.95 32 C575.47 53.23, 575.87 79.38, 574.95 104.75 M574.95 104.75 C574.65 125.09, 565.26 135.4, 542.95 136.75 M542.95 136.75 C429.94 138.81, 317.78 137.73, 32 136.75 M32 136.75 C11.88 138.4, 0.28 124.58, 0 104.75 M0 104.75 C1.19 84.66, -0.76 63.3, 0 32 M0 32 C-1.12 9.46, 9.89 -1.02, 32 0" stroke="#2f9e44" stroke-width="2.5" fill="none" stroke-dasharray="8 10"></path></g><g transform="translate(538.5571166649461 607.3910342935693) rotate(0 209.7838592529297 50)"><text x="0" y="14.016" font-family="Virgil, Segoe UI Emoji" font-size="16px" fill="#2f9e44" text-anchor="start" style="white-space: pre;" direction="ltr" dominant-baseline="alphabetic">Tips</text><text x="0" y="34.016" font-family="Virgil, Segoe UI Emoji" font-size="16px" fill="#2f9e44" text-anchor="start" style="white-space: pre;" direction="ltr" dominant-baseline="alphabetic">1. No id needs to be defined for each object type.</text><text x="0" y="54.016" font-family="Virgil, Segoe UI Emoji" font-size="16px" fill="#2f9e44" text-anchor="start" style="white-space: pre;" direction="ltr" dominant-baseline="alphabetic">2. links represent relationships between object types.</text><text x="0" y="74.016" font-family="Virgil, Segoe UI Emoji" font-size="16px" fill="#2f9e44" text-anchor="start" style="white-space: pre;" direction="ltr" dominant-baseline="alphabetic"></text><text x="0" y="94.016" font-family="Virgil, Segoe UI Emoji" font-size="16px" fill="#2f9e44" text-anchor="start" style="white-space: pre;" direction="ltr" dominant-baseline="alphabetic">No need for foreign keys or JOINs</text></g><g transform="translate(271.1320250233335 10) rotate(0 234.9899139404297 22.5)"><text x="0" y="31.536" font-family="Virgil, Segoe UI Emoji" font-size="36px" fill="#2f9e44" text-anchor="start" style="white-space: pre;" direction="ltr" dominant-baseline="alphabetic">edgedb conceptual diagram</text></g><g transform="translate(333.25810387382177 82.29789066651227) rotate(0 171.81985473632812 12.5)"><text x="0" y="17.52" font-family="Virgil, Segoe UI Emoji" font-size="20px" fill="#2f9e44" text-anchor="start" style="white-space: pre;" direction="ltr" dominant-baseline="alphabetic">edgedb process and data branches</text></g></svg>